<svg xmlns="http://www.w3.org/2000/svg" viewBox="0 0 410 404">
  <path fill="#646cff" d="M399.641 59.524 215.643 388.545c-3.799 6.793-13.559 6.833-17.416.073L10.581 59.556c-4.193-7.353 2.094-16.321 10.397-14.832l184.233 33.082a10 10 0 0 0 3.544-.006l180.508-33.033c8.276-1.514 14.611 7.385 10.378 14.757Z"/>
  <path fill="#ffdd35" d="M292.965 1.574 156.801 28.255a5 5 0 0 0-4.023 4.619l-8.376 141.802a5 5 0 0 0 6.2 5.182l37.91-8.741a5 5 0 0 1 6.046 5.843l-11.265 55.183a5 5 0 0 0 6.534 5.744l23.426-8.96a5 5 0 0 1 6.451 6.43l-17.899 86.576c-1.046 5.06 5.678 7.791 8.954 3.634l2.188-2.776 110.861-221.93c2.26-4.523-1.649-9.671-6.61-8.703l-39.071 7.625a5 5 0 0 1-5.734-6.004l25.512-87.774c1.449-4.989-2.829-9.731-7.94-8.731Z"/>
</svg>
